<?xml version="1.0" encoding="UTF-8" standalone="no"?>
<!-- Created with Inkscape (http://www.inkscape.org/) -->

<svg
   width="512"
   height="512"
   viewBox="0 0 135.46667 135.46667"
   version="1.1"
   id="svg5"
   inkscape:version="1.1 (c68e22c387, 2021-05-23)"
   sodipodi:docname="AVIC_LOGO - Copy.svg"
   xmlns:inkscape="http://www.inkscape.org/namespaces/inkscape"
   xmlns:sodipodi="http://sodipodi.sourceforge.net/DTD/sodipodi-0.dtd"
   xmlns="http://www.w3.org/2000/svg"
   xmlns:svg="http://www.w3.org/2000/svg">
  <sodipodi:namedview
     id="namedview7"
     pagecolor="#ffffff"
     bordercolor="#666666"
     borderopacity="1.0"
     inkscape:pageshadow="2"
     inkscape:pageopacity="0.0"
     inkscape:pagecheckerboard="true"
     inkscape:document-units="px"
     showgrid="false"
     inkscape:zoom="1.8101935"
     inkscape:cx="133.13494"
     inkscape:cy="208.81746"
     inkscape:window-width="2880"
     inkscape:window-height="1706"
     inkscape:window-x="-11"
     inkscape:window-y="-11"
     inkscape:window-maximized="1"
     inkscape:current-layer="g8023" />
  <defs
     id="defs2">
    <linearGradient
       id="linearGradient1182"
       inkscape:swatch="solid">
      <stop
         style="stop-color:#0089cf;stop-opacity:1;"
         offset="0"
         id="stop1180" />
    </linearGradient>
  </defs>
  <g
     inkscape:label="Layer 1"
     inkscape:groupmode="layer"
     id="layer1"
     style="display:inline">
    <g
       id="g3694"
       style="display:inline;opacity:1"
       inkscape:label="circle"
       transform="matrix(1.3505734,0,0,1.3505734,-30.005443,-15.437057)">
      <path
         id="path1114"
         style="display:inline;opacity:1;mix-blend-mode:normal;fill:#ffffff;fill-opacity:1;stroke:#000000;stroke-width:1.19218;stroke-miterlimit:4;stroke-dasharray:none;stroke-opacity:0"
         inkscape:label="outer"
         d="M 244.71875,27.603516 A 241.58737,241.58737 0 0 0 3.1308594,269.18945 241.58737,241.58737 0 0 0 244.71875,510.77734 241.58737,241.58737 0 0 0 486.30664,269.18945 241.58737,241.58737 0 0 0 244.71875,27.603516 Z m 34.91211,21.328125 A 192.29197,192.29197 0 0 1 471.92383,241.22461 192.29197,192.29197 0 0 1 279.63086,433.51562 192.29197,192.29197 0 0 1 87.339844,241.22461 192.29197,192.29197 0 0 1 279.63086,48.931641 Z"
         transform="matrix(0.19590445,0,0,0.19590445,22.216818,11.430002)" />
    </g>
    <g
       id="g8023"
       inkscape:label="plane"
       style="display:inline"
       transform="matrix(1.3605243,0,0,1.3605243,-29.980534,-13.949463)">
      <path
         id="path3733"
         style="display:inline;opacity:1;fill:#ffffff;fill-opacity:1;stroke:none;stroke-width:1.36052px;stroke-linecap:butt;stroke-linejoin:miter;stroke-opacity:1"
         d="m 508.92383,0.77539062 c 0,0 -129.21952,92.56402938 -199.16992,130.19335938 C 237.7126,169.72286 90.960938,220.85352 90.960938,220.85352 L 211.24414,251.7793 260.28125,198.38672 340.67383,160 440.94727,77.091797 287.11719,271.28711 423.94141,306.4668 c 0,0 7.2773,-98.31077 19.92382,-145.6543 14.86135,-55.63487 65.0586,-160.03710938 65.0586,-160.03710938 z"
         transform="matrix(0.1944716,0,0,0.1944716,22.036015,10.253005)" />
      <path
         style="display:inline;fill:#ffffff;fill-opacity:1;stroke:none;stroke-width:0.264583px;stroke-linecap:butt;stroke-linejoin:miter;stroke-opacity:1"
         d="M 89.204772,42.076921 73.155408,49.787956 59.202771,64.997702 74.629487,65.281677 103.60204,29.534382 Z"
         id="path6484"
         sodipodi:nodetypes="cccccc" />
    </g>
    <g
       aria-label="AVIC"
       id="text8731"
       style="font-weight:bold;font-size:16.9333px;line-height:1.25;font-family:Arial;-inkscape-font-specification:'Arial, Bold';text-align:center;letter-spacing:0px;word-spacing:0px;text-anchor:middle;display:inline;fill:#0089cf;stroke-width:0.321968"
       transform="matrix(1.1180361,0,0,1.1180361,-8.7848973,-6.4951133)">
      <path
         d="m 63.75424,93.878098 h -2.662364 l -1.058332,-2.753315 h -4.845172 l -1.000454,2.753315 h -2.596219 l 4.72115,-12.121201 h 2.58795 z m -4.506176,-4.795564 -1.670179,-4.497908 -1.637106,4.497908 z"
         id="path5282"
         style="fill:#ffffff" />
      <path
         d="M 68.748245,93.981451 64.415701,81.86025 h 2.654096 l 3.067507,8.971011 2.968289,-8.971011 h 2.596219 L 71.361,93.981451 Z"
         id="path5284"
         style="fill:#ffffff" />
      <path
         d="M 78.942954,93.981451 V 81.86025 h 2.447391 v 12.121201 z"
         id="path5286"
         style="fill:#ffffff" />
      <path
         d="m 93.234566,89.421531 2.372977,0.752407 q -0.545702,1.984371 -1.819007,2.951752 -1.265037,0.959113 -3.216335,0.959113 -2.414318,0 -3.968742,-1.645375 -1.554424,-1.653642 -1.554424,-4.514444 0,-3.026166 1.562692,-4.696345 1.562692,-1.678447 4.109302,-1.678447 2.224149,0 3.613209,1.314646 0.826821,0.777212 1.240232,2.232417 L 93.151883,85.67603 Q 92.93691,84.733454 92.250648,84.187752 91.572655,83.64205 90.597006,83.64205 q -1.347719,0 -2.191077,0.967381 -0.835089,0.967381 -0.835089,3.133653 0,2.298563 0.826821,3.274212 0.826821,0.975649 2.149735,0.975649 0.97565,0 1.678448,-0.620116 0.702798,-0.620116 1.008722,-1.951298 z"
         id="path5288"
         style="fill:#ffffff;fill-opacity:1" />
    </g>
  </g>
</svg>
